# xmcd
#
# Track frame offsets:
#	180
#	14577
#	28817
#	45606
#	59177
#	72166
#	83053
#	93695
#	108402
#	124358
#	137296
#	150851
#	165875
#	179039
#
# Disc length: 2546 seconds
#
# Revision: 0
# Processed by: cddbd v1.5.2PL0 Copyright (c) Steve Scherf et al.
# Submitted via: EasyCDDAExtractor 4.6.9.1
#
DISCID=bb09f00e
DTITLE=KBS 가요무대 - CD3
DYEAR=2001
DGENRE=Oldies
TTITLE0=내 마음 별과같이
TTITLE1=귀국선
TTITLE2=고향무정
TTITLE3=어머님
TTITLE4=아내의 노래
TTITLE5=비내리는 영동교
TTITLE6=굳세어라 금순아
TTITLE7=여자의 일생
TTITLE8=가슴 아프게
TTITLE9=청춘의 꿈
TTITLE10=산장의 여인
TTITLE11=갈대의 순정
TTITLE12=삼다도 소식
TTITLE13=이별의 부산 정거장
EXTD=
EXTT0=
EXTT1=
EXTT2=
EXTT3=
EXTT4=
EXTT5=
EXTT6=
EXTT7=
EXTT8=
EXTT9=
EXTT10=
EXTT11=
EXTT12=
EXTT13=
PLAYORDER=
